<svg width="1200" height="260" viewBox="0 0 1200 260" fill="none" xmlns="http://www.w3.org/2000/svg">
  <defs>
    <linearGradient id="navyBgF" x1="0%" y1="0%" x2="100%" y2="100%">
      <stop offset="0%" stop-color="#182755"/>
      <stop offset="100%" stop-color="#0B1330"/>
    </linearGradient>
    <linearGradient id="orangeGradF" x1="0%" y1="0%" x2="100%" y2="100%">
      <stop offset="0%" stop-color="#FF8C5A"/>
      <stop offset="100%" stop-color="#E85D2C"/>
    </linearGradient>
    <clipPath id="panelClipF">
      <polygon points="0,0 440,0 340,260 0,260"/>
    </clipPath>
  </defs>

  <rect width="1200" height="260" fill="url(#navyBgF)"/>

  <!-- AI / ML watermark motifs, navy side -->
  <g fill="none" stroke="#ffffff" stroke-width="1.3" opacity="0.07">
    <g transform="translate(560,30) scale(0.85)">
      <circle cx="0" cy="8" r="4.5"/><circle cx="0" cy="38" r="4.5"/><circle cx="0" cy="68" r="4.5"/>
      <circle cx="46" cy="0" r="4.5"/><circle cx="46" cy="30" r="4.5"/><circle cx="46" cy="60" r="4.5"/><circle cx="46" cy="88" r="4.5"/>
      <circle cx="92" cy="18" r="4.5"/><circle cx="92" cy="50" r="4.5"/>
      <line x1="0" y1="8" x2="46" y2="0"/><line x1="0" y1="8" x2="46" y2="30"/>
      <line x1="0" y1="38" x2="46" y2="0"/><line x1="0" y1="38" x2="46" y2="30"/><line x1="0" y1="38" x2="46" y2="60"/>
      <line x1="0" y1="68" x2="46" y2="30"/><line x1="0" y1="68" x2="46" y2="60"/><line x1="0" y1="68" x2="46" y2="88"/>
      <line x1="46" y1="0" x2="92" y2="18"/><line x1="46" y1="30" x2="92" y2="18"/><line x1="46" y1="30" x2="92" y2="50"/>
      <line x1="46" y1="60" x2="92" y2="50"/><line x1="46" y1="88" x2="92" y2="50"/>
    </g>
    <g transform="translate(950,45)">
      <rect x="0" y="0" width="52" height="52" rx="5"/>
      <rect x="13" y="13" width="26" height="26" rx="2"/>
      <line x1="10" y1="-10" x2="10" y2="0"/><line x1="26" y1="-10" x2="26" y2="0"/><line x1="42" y1="-10" x2="42" y2="0"/>
      <line x1="10" y1="52" x2="10" y2="62"/><line x1="26" y1="52" x2="26" y2="62"/><line x1="42" y1="52" x2="42" y2="62"/>
      <line x1="-10" y1="10" x2="0" y2="10"/><line x1="-10" y1="26" x2="0" y2="26"/><line x1="-10" y1="42" x2="0" y2="42"/>
      <line x1="52" y1="10" x2="62" y2="10"/><line x1="52" y1="26" x2="62" y2="26"/><line x1="52" y1="42" x2="62" y2="42"/>
    </g>
    <text x="560" y="230" fill="#ffffff" stroke="none" font-family="'Fira Code', monospace" font-size="12" letter-spacing="2">01011 10010 01101</text>

    <!-- statistical trend line, top strip -->
    <polyline stroke="#FF6B35" stroke-width="1.5" fill="none" points="600,150 640,138 680,146 720,120 760,132 800,105"/>
    <g fill="#FF6B35" stroke="none">
      <circle cx="640" cy="138" r="2.2"/>
      <circle cx="720" cy="120" r="2.2"/>
      <circle cx="800" cy="105" r="2.2"/>
    </g>

    <!-- bell curve -->
    <path stroke-width="1.4" fill="none" d="M860,150 C876,150 880,118 898,118 C916,118 920,150 936,150"/>

    <!-- scatter dots -->
    <g fill="#ffffff" stroke="none">
      <circle cx="700" cy="70" r="1.8"/>
      <circle cx="716" cy="55" r="1.8"/>
      <circle cx="732" cy="68" r="1.8"/>
      <circle cx="748" cy="48" r="1.8"/>
      <circle cx="764" cy="62" r="1.8"/>
    </g>
  </g>

  <!-- Left orange panel -->
  <polygon points="0,0 440,0 340,260 0,260" fill="url(#orangeGradF)"/>
  <polygon points="415,0 440,0 340,260 315,260" fill="#ffffff" opacity="0.12"/>

  <!-- AI / ML watermark motif, orange side -->
  <g fill="none" stroke="#0B1330" stroke-width="1.3" opacity="0.10" clip-path="url(#panelClipF)">
    <g transform="translate(40,190)">
      <ellipse cx="0" cy="0" rx="30" ry="12"/>
      <ellipse cx="0" cy="0" rx="30" ry="12" transform="rotate(60)"/>
      <ellipse cx="0" cy="0" rx="30" ry="12" transform="rotate(120)"/>
      <circle cx="0" cy="0" r="3" fill="#0B1330"/>
    </g>
  </g>

  <!-- Scattered diamonds -->
  <g>
    <rect x="380" y="40" width="18" height="18" fill="#ffffff" opacity="0.18" transform="rotate(45 389 49)"/>
    <rect x="460" y="150" width="14" height="14" fill="#FF6B35" opacity="0.5" transform="rotate(45 467 157)"/>
    <rect x="1130" y="200" width="20" height="20" fill="#ffffff" opacity="0.12" transform="rotate(45 1140 210)"/>
    <rect x="1100" y="40" width="16" height="16" fill="#FF6B35" opacity="0.6" transform="rotate(45 1108 48)"/>
  </g>

  <!-- Data-science emblem in left panel -->
  <g clip-path="url(#panelClipF)">
    <circle cx="190" cy="130" r="90" fill="#0B1330" opacity="0.16"/>
    <circle cx="190" cy="130" r="74" fill="none" stroke="#ffffff" stroke-width="2" opacity="0.35"/>
    <rect x="145" y="140" width="90" height="54" rx="5" fill="#0B1330"/>
    <rect x="151" y="146" width="78" height="39" rx="2" fill="#ffffff"/>
    <rect x="160" y="168" width="8" height="12" fill="#FF6B35"/>
    <rect x="173" y="160" width="8" height="20" fill="#0B1330"/>
    <rect x="186" y="150" width="8" height="30" fill="#FF6B35"/>
    <rect x="199" y="163" width="8" height="17" fill="#0B1330"/>
    <polygon points="137,194 243,194 253,207 127,207" fill="#0B1330"/>
    <g stroke="#ffffff" stroke-width="1.2" opacity="0.5">
      <line x1="190" y1="130" x2="230" y2="80"/>
      <line x1="190" y1="130" x2="140" y2="75"/>
    </g>
    <g fill="#ffffff">
      <circle cx="230" cy="80" r="5"/>
      <circle cx="140" cy="75" r="4.5"/>
    </g>
  </g>

  <!-- Logo tag -->
  <g>
    <rect x="500" y="34" width="10" height="10" fill="#FF6B35" transform="rotate(45 505 39)"/>
    <text x="522" y="44" font-family="'Segoe UI', Arial, sans-serif" font-size="14" letter-spacing="2" font-weight="700" fill="#ffffff">EJISAY.NAIK</text>
  </g>

  <!-- Headline -->
  <text x="500" y="100" font-family="'Segoe UI', Arial, sans-serif" font-size="38" font-weight="800">
    <tspan fill="#FF6B35">LET'S BUILD</tspan>
  </text>
  <text x="500" y="140" font-family="'Segoe UI', Arial, sans-serif" font-size="38" font-weight="800" fill="#ffffff">
    SOMETHING GREAT
  </text>

  <!-- Tagline chips -->
  <g font-family="'Segoe UI', Arial, sans-serif" font-size="12" font-weight="700" fill="#ffffff">
    <circle cx="518" cy="192" r="16" fill="#FF6B35"/>
    <path d="M511,192 l5,5 l9,-10" stroke="#0B1330" stroke-width="2.2" fill="none" stroke-linecap="round" stroke-linejoin="round"/>
    <text x="544" y="197" letter-spacing="1">OPEN SOURCE</text>

    <circle cx="690" cy="192" r="16" fill="#FF6B35"/>
    <circle cx="690" cy="188" r="4" fill="#0B1330"/>
    <path d="M682,198 c0,-6 16,-6 16,0" stroke="#0B1330" stroke-width="2.2" fill="none" stroke-linecap="round"/>
    <text x="716" y="197" letter-spacing="1">AI / ML</text>

    <circle cx="820" cy="192" r="16" fill="#FF6B35"/>
    <circle cx="815" cy="189" r="3.4" fill="#0B1330"/>
    <circle cx="825" cy="189" r="3.4" fill="#0B1330"/>
    <path d="M810,199 c2,-5 16,-5 18,0" stroke="#0B1330" stroke-width="2" fill="none" stroke-linecap="round"/>
    <text x="846" y="197" letter-spacing="1">COLLAB</text>
  </g>
</svg>
