<svg width="1200" height="150" viewBox="0 0 1200 150" fill="none" xmlns="http://www.w3.org/2000/svg">
  <defs>
    <linearGradient id="bgGradF" x1="0%" y1="0%" x2="100%" y2="100%">
      <stop offset="0%" stop-color="#0e6ba8"/>
      <stop offset="40%" stop-color="#0a2472"/>
      <stop offset="75%" stop-color="#050a30"/>
      <stop offset="100%" stop-color="#020111"/>
    </linearGradient>
    <linearGradient id="textGradF" x1="0%" y1="0%" x2="100%" y2="0%">
      <stop offset="0%" stop-color="#00d2ff"/>
      <stop offset="50%" stop-color="#a8edfc"/>
      <stop offset="100%" stop-color="#ffffff"/>
    </linearGradient>
  </defs>

  <rect width="1200" height="150" fill="url(#bgGradF)"/>

  <g stroke="#4fd8ff" stroke-width="1" opacity="0.25">
    <line x1="80" y1="110" x2="180" y2="60"/>
    <line x1="180" y1="60" x2="280" y2="100"/>
    <line x1="280" y1="100" x2="380" y2="40"/>
    <line x1="820" y1="40" x2="920" y2="100"/>
    <line x1="920" y1="100" x2="1020" y2="55"/>
    <line x1="1020" y1="55" x2="1120" y2="95"/>
  </g>
  <g fill="#7fe9ff">
    <circle cx="80" cy="110" r="2.6"><animate attributeName="opacity" values="0.3;1;0.3" dur="3.2s" repeatCount="indefinite"/></circle>
    <circle cx="180" cy="60" r="3"><animate attributeName="opacity" values="0.5;1;0.5" dur="2.8s" repeatCount="indefinite"/></circle>
    <circle cx="280" cy="100" r="2.4"><animate attributeName="opacity" values="0.3;0.9;0.3" dur="3.6s" repeatCount="indefinite"/></circle>
    <circle cx="380" cy="40" r="2.8"><animate attributeName="opacity" values="0.4;1;0.4" dur="3s" repeatCount="indefinite"/></circle>
    <circle cx="820" cy="40" r="2.8"><animate attributeName="opacity" values="0.4;1;0.4" dur="3.1s" repeatCount="indefinite"/></circle>
    <circle cx="920" cy="100" r="3"><animate attributeName="opacity" values="0.5;1;0.5" dur="2.7s" repeatCount="indefinite"/></circle>
    <circle cx="1020" cy="55" r="2.4"><animate attributeName="opacity" values="0.3;0.9;0.3" dur="3.7s" repeatCount="indefinite"/></circle>
    <circle cx="1120" cy="95" r="2.6"><animate attributeName="opacity" values="0.3;1;0.3" dur="3.3s" repeatCount="indefinite"/></circle>
  </g>

  <text x="600" y="85" text-anchor="middle" font-family="'Fira Code', monospace" font-size="20" letter-spacing="3" fill="url(#textGradF)">
    Thanks for stopping by &#8226; Let's build something amazing 🚀
  </text>
</svg>
