<svg width="1200" height="380" viewBox="0 0 1200 380" fill="none" xmlns="http://www.w3.org/2000/svg">
  <defs>
    <linearGradient id="navyBg" x1="0%" y1="0%" x2="100%" y2="100%">
      <stop offset="0%" stop-color="#0B1330"/>
      <stop offset="100%" stop-color="#182755"/>
    </linearGradient>
    <linearGradient id="orangeGrad" x1="0%" y1="0%" x2="100%" y2="100%">
      <stop offset="0%" stop-color="#FF8C5A"/>
      <stop offset="100%" stop-color="#E85D2C"/>
    </linearGradient>
    <linearGradient id="orangeGradSoft" x1="0%" y1="0%" x2="100%" y2="0%">
      <stop offset="0%" stop-color="#FF8C5A"/>
      <stop offset="100%" stop-color="#FF6B35"/>
    </linearGradient>
    <clipPath id="panelClip">
      <polygon points="760,0 1200,0 1200,380 660,380"/>
    </clipPath>
  </defs>

  <!-- Background -->
  <rect width="1200" height="380" fill="url(#navyBg)"/>

  <!-- AI / ML watermark motifs -->
  <g fill="none" stroke="#ffffff" stroke-width="1.4" opacity="0.07">
    <!-- neural network diagram, left -->
    <g transform="translate(120,60) scale(1.1)">
      <circle cx="0" cy="10" r="5"/><circle cx="0" cy="45" r="5"/><circle cx="0" cy="80" r="5"/>
      <circle cx="55" cy="0" r="5"/><circle cx="55" cy="35" r="5"/><circle cx="55" cy="70" r="5"/><circle cx="55" cy="105" r="5"/>
      <circle cx="110" cy="20" r="5"/><circle cx="110" cy="60" r="5"/><circle cx="110" cy="95" r="5"/>
      <line x1="0" y1="10" x2="55" y2="0"/><line x1="0" y1="10" x2="55" y2="35"/><line x1="0" y1="10" x2="55" y2="70"/>
      <line x1="0" y1="45" x2="55" y2="0"/><line x1="0" y1="45" x2="55" y2="35"/><line x1="0" y1="45" x2="55" y2="70"/><line x1="0" y1="45" x2="55" y2="105"/>
      <line x1="0" y1="80" x2="55" y2="35"/><line x1="0" y1="80" x2="55" y2="70"/><line x1="0" y1="80" x2="55" y2="105"/>
      <line x1="55" y1="0" x2="110" y2="20"/><line x1="55" y1="35" x2="110" y2="20"/><line x1="55" y1="35" x2="110" y2="60"/>
      <line x1="55" y1="70" x2="110" y2="60"/><line x1="55" y1="70" x2="110" y2="95"/><line x1="55" y1="105" x2="110" y2="95"/>
    </g>

    <!-- CPU / chip icon, bottom-left -->
    <g transform="translate(140,270)">
      <rect x="0" y="0" width="70" height="70" rx="6"/>
      <rect x="18" y="18" width="34" height="34" rx="3"/>
      <line x1="14" y1="-14" x2="14" y2="0"/><line x1="35" y1="-14" x2="35" y2="0"/><line x1="56" y1="-14" x2="56" y2="0"/>
      <line x1="14" y1="70" x2="14" y2="84"/><line x1="35" y1="70" x2="35" y2="84"/><line x1="56" y1="70" x2="56" y2="84"/>
      <line x1="-14" y1="14" x2="0" y2="14"/><line x1="-14" y1="35" x2="0" y2="35"/><line x1="-14" y1="56" x2="0" y2="56"/>
      <line x1="70" y1="14" x2="84" y2="14"/><line x1="70" y1="35" x2="84" y2="35"/><line x1="70" y1="56" x2="84" y2="56"/>
    </g>

    <!-- brain-circuit icon, center -->
    <g transform="translate(430,40) scale(0.9)">
      <path d="M40,10 C20,10 8,25 8,42 C8,55 15,62 15,70 C15,82 25,90 40,90 C55,90 65,82 65,70 C65,62 72,55 72,42 C72,25 60,10 40,10 Z"/>
      <path d="M40,20 L40,80 M25,30 L55,30 M22,50 L58,50 M28,68 L52,68"/>
      <circle cx="25" cy="30" r="2.4" fill="#ffffff"/>
      <circle cx="55" cy="50" r="2.4" fill="#ffffff"/>
      <circle cx="30" cy="68" r="2.4" fill="#ffffff"/>
    </g>

    <!-- atom icon, upper-right of text zone -->
    <g transform="translate(560,240)">
      <ellipse cx="0" cy="0" rx="42" ry="16"/>
      <ellipse cx="0" cy="0" rx="42" ry="16" transform="rotate(60)"/>
      <ellipse cx="0" cy="0" rx="42" ry="16" transform="rotate(120)"/>
      <circle cx="0" cy="0" r="4" fill="#ffffff"/>
    </g>

    <!-- binary digits scattered -->
    <g stroke="none" fill="#ffffff" font-family="'Fira Code', monospace" font-size="13" letter-spacing="2">
      <text x="20" y="330">01001 10110</text>
      <text x="480" y="60">10110 01011</text>
      <text x="330" y="330">1101001</text>
    </g>

    <!-- statistical trend line + data points, lower-left -->
    <g stroke="#FF6B35" stroke-width="1.6">
      <polyline fill="none" points="20,368 80,352 140,362 200,326 260,340 320,300 380,314 440,278"/>
    </g>
    <g fill="#FF6B35" stroke="none">
      <circle cx="80" cy="352" r="2.4"/>
      <circle cx="200" cy="326" r="2.4"/>
      <circle cx="320" cy="300" r="2.4"/>
      <circle cx="440" cy="278" r="2.4"/>
    </g>

    <!-- scatter plot with axes, upper-left -->
    <g transform="translate(230,175)">
      <line x1="0" y1="0" x2="0" y2="70" stroke-width="1"/>
      <line x1="0" y1="70" x2="105" y2="70" stroke-width="1"/>
    </g>
    <g fill="#ffffff" stroke="none">
      <circle cx="248" cy="230" r="2"/>
      <circle cx="266" cy="205" r="2"/>
      <circle cx="284" cy="222" r="2"/>
      <circle cx="302" cy="190" r="2"/>
      <circle cx="320" cy="212" r="2"/>
      <circle cx="255" cy="215" r="2"/>
    </g>

    <!-- bell curve, right of headline -->
    <g stroke-width="1.5">
      <path fill="none" d="M470,250 C492,250 498,205 522,205 C546,205 552,250 574,250"/>
    </g>
  </g>

  <!-- Diagonal seam line -->
  <polygon points="740,0 760,0 660,380 640,380" fill="#ffffff" opacity="0.08"/>

  <!-- Right orange panel -->
  <polygon points="760,0 1200,0 1200,380 660,380" fill="url(#orangeGrad)"/>
  <polygon points="760,0 785,0 685,380 660,380" fill="#ffffff" opacity="0.12"/>

  <!-- AI / ML watermark motifs on orange panel -->
  <g fill="none" stroke="#0B1330" stroke-width="1.4" opacity="0.10" clip-path="url(#panelClip)">
    <g transform="translate(800,250) scale(0.9)">
      <circle cx="0" cy="10" r="5"/><circle cx="0" cy="45" r="5"/>
      <circle cx="50" cy="0" r="5"/><circle cx="50" cy="35" r="5"/><circle cx="50" cy="70" r="5"/>
      <circle cx="100" cy="20" r="5"/><circle cx="100" cy="55" r="5"/>
      <line x1="0" y1="10" x2="50" y2="0"/><line x1="0" y1="10" x2="50" y2="35"/>
      <line x1="0" y1="45" x2="50" y2="35"/><line x1="0" y1="45" x2="50" y2="70"/>
      <line x1="50" y1="0" x2="100" y2="20"/><line x1="50" y1="35" x2="100" y2="20"/><line x1="50" y1="35" x2="100" y2="55"/>
      <line x1="50" y1="70" x2="100" y2="55"/>
    </g>
    <g transform="translate(1080,300)">
      <ellipse cx="0" cy="0" rx="36" ry="14"/>
      <ellipse cx="0" cy="0" rx="36" ry="14" transform="rotate(60)"/>
      <ellipse cx="0" cy="0" rx="36" ry="14" transform="rotate(120)"/>
      <circle cx="0" cy="0" r="3.4" fill="#0B1330"/>
    </g>
    <text x="820" y="70" fill="#0B1330" stroke="none" font-family="'Fira Code', monospace" font-size="12" letter-spacing="2">01101 00110</text>
  </g>

  <!-- Scattered diamond accents -->
  <g>
    <rect x="720" y="40" width="22" height="22" fill="#ffffff" opacity="0.18" transform="rotate(45 731 51)"/>
    <rect x="640" y="120" width="16" height="16" fill="#FF6B35" opacity="0.5" transform="rotate(45 648 128)"/>
    <rect x="600" y="260" width="26" height="26" fill="#ffffff" opacity="0.10" transform="rotate(45 613 273)"/>
    <rect x="1140" y="30" width="18" height="18" fill="#ffffff" opacity="0.25" transform="rotate(45 1149 39)"/>
    <rect x="1080" y="330" width="20" height="20" fill="#ffffff" opacity="0.18" transform="rotate(45 1090 340)"/>
    <rect x="60" y="30" width="14" height="14" fill="#FF6B35" opacity="0.7" transform="rotate(45 67 37)"/>
  </g>

  <!-- Data-science emblem within right panel -->
  <g clip-path="url(#panelClip)">
    <circle cx="960" cy="190" r="118" fill="#0B1330" opacity="0.18"/>
    <circle cx="960" cy="190" r="98" fill="none" stroke="#ffffff" stroke-width="2" opacity="0.35"/>

    <!-- laptop base -->
    <rect x="900" y="205" width="120" height="72" rx="6" fill="#0B1330"/>
    <rect x="908" y="213" width="104" height="52" rx="3" fill="#ffffff"/>
    <!-- bar chart on screen -->
    <rect x="920" y="245" width="10" height="14" fill="#FF6B35"/>
    <rect x="936" y="235" width="10" height="24" fill="#0B1330"/>
    <rect x="952" y="225" width="10" height="34" fill="#FF6B35"/>
    <rect x="968" y="240" width="10" height="19" fill="#0B1330"/>
    <rect x="984" y="230" width="10" height="29" fill="#FF6B35"/>
    <!-- keyboard base -->
    <polygon points="888,277 1032,277 1046,293 874,293" fill="#0B1330"/>

    <!-- orbiting network nodes (AI motif) -->
    <g stroke="#ffffff" stroke-width="1.4" opacity="0.55">
      <line x1="960" y1="190" x2="1010" y2="120"/>
      <line x1="960" y1="190" x2="1030" y2="205"/>
      <line x1="960" y1="190" x2="895" y2="130"/>
    </g>
    <g fill="#ffffff">
      <circle cx="1010" cy="120" r="6"/>
      <circle cx="1030" cy="205" r="5"/>
      <circle cx="895" cy="130" r="5"/>
    </g>
  </g>

  <!-- Top-left monogram badge -->
  <rect x="40" y="34" width="46" height="46" rx="10" fill="#FF6B35"/>
  <text x="63" y="63" text-anchor="middle" font-family="'Segoe UI', Arial, sans-serif" font-size="22" font-weight="800" fill="#0B1330">EN</text>

  <!-- Top-right small logo tag -->
  <g>
    <rect x="1058" y="38" width="10" height="10" fill="#FF6B35" transform="rotate(45 1063 43)"/>
    <text x="1080" y="48" font-family="'Segoe UI', Arial, sans-serif" font-size="15" letter-spacing="2" font-weight="700" fill="#ffffff">EJISAY.NAIK</text>
  </g>

  <!-- Headline -->
  <text x="60" y="165" font-family="'Segoe UI', Arial, sans-serif" font-size="54" font-weight="800" letter-spacing="1">
    <tspan fill="#FF6B35">EJISAY</tspan><tspan fill="#ffffff"> NAIK</tspan>
  </text>
  <text x="60" y="205" font-family="'Segoe UI', Arial, sans-serif" font-size="27" font-weight="700" letter-spacing="4" fill="#ffffff">
    DATA SCIENCE &amp; AI/ML
  </text>

  <!-- Body copy -->
  <text x="60" y="240" font-family="'Segoe UI', Arial, sans-serif" font-size="15" fill="#C9D1E0">
    Turning data into decisions — machine learning, optimization
  </text>
  <text x="60" y="262" font-family="'Segoe UI', Arial, sans-serif" font-size="15" fill="#C9D1E0">
    and statistics, one project at a time.
  </text>

  <!-- CTA button -->
  <rect x="60" y="286" width="192" height="46" rx="23" fill="url(#orangeGradSoft)"/>
  <text x="156" y="315" text-anchor="middle" font-family="'Segoe UI', Arial, sans-serif" font-size="15" font-weight="700" letter-spacing="1" fill="#0B1330">VIEW PROJECTS →</text>

  <!-- Bottom contact row -->
  <g font-family="'Segoe UI', Arial, sans-serif" font-size="13" fill="#C9D1E0">
    <circle cx="70" cy="356" r="12" fill="#FF6B35"/>
    <path d="M64,352 L70,357 L76,352" stroke="#0B1330" stroke-width="1.6" fill="none"/>
    <rect x="64" y="351" width="12" height="9" rx="1.5" fill="none" stroke="#0B1330" stroke-width="1.6"/>
    <text x="88" y="360">ejnaik08@gmail.com</text>

    <line x1="270" y1="345" x2="270" y2="367" stroke="#ffffff" opacity="0.2"/>

    <circle cx="300" cy="356" r="12" fill="#FF6B35"/>
    <circle cx="300" cy="356" r="6" fill="none" stroke="#0B1330" stroke-width="1.6"/>
    <line x1="294" y1="356" x2="306" y2="356" stroke="#0B1330" stroke-width="1.4"/>
    <text x="318" y="360">github.com/ejnaik</text>

    <line x1="500" y1="345" x2="500" y2="367" stroke="#ffffff" opacity="0.2"/>

    <circle cx="530" cy="356" r="12" fill="#FF6B35"/>
    <path d="M530,350 c4,0 6,3 6,6 c0,4 -6,9 -6,9 c0,0 -6,-5 -6,-9 c0,-3 2,-6 6,-6 z" fill="#0B1330"/>
    <text x="548" y="360">India</text>
  </g>
</svg>
